<svg xmlns="http://www.w3.org/2000/svg" viewBox="0 0 56 56"><defs><style>.cls-1{fill:#1bb3cc;}</style></defs><g id="Capa_2" data-name="Capa 2"><g id="Base"><path class="cls-1" d="M53.3,36.77a11.74,11.74,0,0,0-20.78,7.4,12.25,12.25,0,0,0-4.72-2.48l-.3-.87a17.21,17.21,0,0,0,12-13.72h2a3.6,3.6,0,0,0,1.8-6.73V16.26A16.27,16.27,0,0,0,27.1,0h-9A16.27,16.27,0,0,0,1.81,16.26v4.11a3.6,3.6,0,0,0,1.8,6.73H5.66a17.19,17.19,0,0,0,12,13.72l-.29.87a12.18,12.18,0,0,0-9,10.79L8.05,56H37.11l-.22-2.61A11.74,11.74,0,0,0,53.3,36.77ZM41.55,25.29H39.7c0-.3,0-.6,0-.9V21.68h1.81a1.81,1.81,0,0,1,0,3.61Zm-37.94-9A14.47,14.47,0,0,1,18.06,1.81h9A14.46,14.46,0,0,1,41.55,16.26v3.61H39.74V18.61a3.59,3.59,0,0,0-1-2.49,4.79,4.79,0,0,0,1-2.92A4.17,4.17,0,0,0,35.57,9h-.13a4.15,4.15,0,0,0-3.73,2.31l1.61.81a2.36,2.36,0,0,1,2.12-1.31h.13a2.37,2.37,0,0,1,2.37,2.36,3.06,3.06,0,0,1-3.06,3.06H34.6a3.33,3.33,0,0,1-1.72-.48l-2.18-1.3s0-.07,0-.11a3.66,3.66,0,0,0-2-3.3l-.27-.14-.8,1.62.26.13A1.89,1.89,0,0,1,27,16.26a10.56,10.56,0,0,1-3.11-.47L14.72,13a7.21,7.21,0,0,0-9.3,6.87v0H3.61Zm0,9a1.81,1.81,0,0,1,0-3.61H5.42v2.71c0,.3,0,.6,0,.9Zm3.62-.9V19.83a5.37,5.37,0,0,1,7-5.14l9.19,2.83a12.44,12.44,0,0,0,3.64.54,3.68,3.68,0,0,0,3.15-1.79L32,17.33a5.13,5.13,0,0,0,2.65.73h.28a4.81,4.81,0,0,0,2.52-.72,1.8,1.8,0,0,1,.54,1.27v5.78a15.36,15.36,0,0,1-30.71,0ZM22.58,41.55a16.44,16.44,0,0,0,3.16-.31l.38,1.14-.43.86a3.48,3.48,0,0,1-6.22,0L19,42.38l.38-1.14a16.52,16.52,0,0,0,3.16.31Zm-5,2,.27.53a5.28,5.28,0,0,0,9.46,0l.26-.53a10.45,10.45,0,0,1,5.32,3.64,11.71,11.71,0,0,0,1.49,3.43H30.71V49.15a2.17,2.17,0,0,1,.64-1.54l-1.28-1.28a4,4,0,0,0-1.17,2.82v5H16.26v-5a4,4,0,0,0-1.17-2.82l-1.28,1.28a2.17,2.17,0,0,1,.64,1.54v1.43H10.53a10.33,10.33,0,0,1,7-7.07Zm-7.44,9.12,0-.24h4.28v1.8H10Zm20.57,1.56v-1.8H35l0,.24.13,1.56Zm13.55,0a9.94,9.94,0,1,1,9.93-9.93A9.94,9.94,0,0,1,44.26,54.19Z"/><path class="cls-1" d="M50.39,37.79l-1.16-.86a4,4,0,0,0-2.39-.8h-.4a3.88,3.88,0,0,0-2.18.65,3.92,3.92,0,0,0-2.18-.65h-.41a4,4,0,0,0-2.39.8l-1.15.86a5,5,0,0,0-1.74,5.58l1.09,3.28a8.94,8.94,0,0,1,.46,2.81,2.93,2.93,0,0,0,5.77.71L44,49a.26.26,0,0,1,.49,0l.3,1.2a2.93,2.93,0,0,0,5.78-.71A8.93,8.93,0,0,1,51,46.65l1.1-3.28a5,5,0,0,0-1.74-5.58ZM39.21,39.24l1.15-.87a2.21,2.21,0,0,1,1.31-.43h.41a2.16,2.16,0,0,1,1.54.63l.64.64.64-.64a2.16,2.16,0,0,1,1.54-.63h.4a2.19,2.19,0,0,1,1.31.43l1.16.87a3.19,3.19,0,0,1,1.24,2.31H47a1.81,1.81,0,0,0-1.81-1.81H43.35a1.81,1.81,0,0,0-1.8,1.81H38a3.2,3.2,0,0,1,1.25-2.31Zm5.95,4.11H43.35v-1.8h1.81Zm4.16,2.73a10.78,10.78,0,0,0-.55,3.38,1.12,1.12,0,0,1-2.21.27l-.3-1.2a2.06,2.06,0,0,0-4,0l-.3,1.2a1.13,1.13,0,0,1-2.22-.27,10.5,10.5,0,0,0-.55-3.38l-.9-2.73h3.26a1.81,1.81,0,0,0,1.8,1.81h1.81A1.81,1.81,0,0,0,47,43.35h3.26Z"/><path class="cls-1" d="M12.65,20.77a.9.9,0,0,1,1.8,0v.91h1.81v-.91a2.71,2.71,0,0,0-5.42,0v.91h1.81Z"/><path class="cls-1" d="M30.71,20.77a.91.91,0,0,1,1.81,0v.91h1.8v-.91a2.71,2.71,0,0,0-5.42,0v.91h1.81Z"/><path class="cls-1" d="M34,28.27l.5-3H10.68l.49,3a11.57,11.57,0,0,0,22.82,0ZM19.13,35.5a5.63,5.63,0,0,1,6.9,0,9.76,9.76,0,0,1-6.9,0ZM32.21,28q-.09.48-.21.93H30.71V27.1h1.64Zm-15.95.93V27.1h1.8v1.8Zm3.61-1.8h1.81v1.8H19.87Zm3.61,0h1.81v1.8H23.48Zm3.62,0h1.8v1.8H27.1Zm-12.65,0v1.8H13.16Q13,28.45,13,28l-.14-.87Zm-.61,3.61H31.32a9.65,9.65,0,0,1-3.54,3.92,7.45,7.45,0,0,0-10.39,0,9.68,9.68,0,0,1-3.55-3.92Z"/></g></g></svg>