<svg xmlns="http://www.w3.org/2000/svg" viewBox="0 0 62.1 56"><defs><style>.cls-1{fill:#1bb3cc;}.cls-2{fill:#fff;}</style></defs><g id="Capa_2" data-name="Capa 2"><g id="Base"><path class="cls-1" d="M35.24,56V42.14a4.06,4.06,0,0,0-4.06-4.06h0a4.8,4.8,0,0,0-.85.08,4.15,4.15,0,0,0-3.22,4.13V56H19.84l-.43-.38A25.45,25.45,0,0,1,10,35.8V31l-.05,0a17.09,17.09,0,0,1-5.57-7.6l0-.08H1.73A1.48,1.48,0,0,1,.25,21.75c0-1.22.31-1.91,1.88-1.91H3.35l.07-.06,0,0v-.08a19.33,19.33,0,0,1-.15-2.4A17.18,17.18,0,0,1,20.16.25h.26A16.93,16.93,0,0,1,31.1,4l.08.06L31.25,4A17,17,0,0,1,41.93.25h.27a17.16,17.16,0,0,1,16.85,17,17.48,17.48,0,0,1-.15,2.4v.05l0,.07,0,0h1.26c1.87,0,1.87.78,1.87,1.87a1.49,1.49,0,0,1-1.48,1.52H58l0,.08a17.09,17.09,0,0,1-5.57,7.6l-.05,0V35.8a25.45,25.45,0,0,1-9.43,19.82l-.46.38ZM31.18,34.69a8,8,0,0,1,1.67.18,7.6,7.6,0,0,1,5.78,7.5V52.61h2.58A22,22,0,0,0,49,35.8V29.2l.73-.51a13.65,13.65,0,0,0,4.55-5.28l.09-.18h-9v2.29A5.48,5.48,0,0,1,39.86,31H22.49A5.48,5.48,0,0,1,17,25.52V23.23H8l.09.18a13.72,13.72,0,0,0,4.55,5.28l.73.51v6.6a22.11,22.11,0,0,0,7.69,16.78l2.66,0V42.14A7.46,7.46,0,0,1,31.18,34.69ZM28.71,27.6h4.93V23.23H28.71Zm8.32,0h2.83A2.09,2.09,0,0,0,42,25.52V23.23H37ZM20.41,25.52a2.08,2.08,0,0,0,2.08,2.08h2.83V23.23H20.41ZM37,19.84H42V17.55a2.1,2.1,0,0,0-2.09-2.09H37Zm-8.32,0h4.93V15.47H28.71Zm-6.22-4.38a2.09,2.09,0,0,0-2.08,2.09v2.29h4.91V15.47Zm17.37-3.38a5.47,5.47,0,0,1,5.47,5.47v2.29H55.44l0-.1a13.54,13.54,0,0,0,.2-2.46A13.77,13.77,0,0,0,41.93,3.64a13.64,13.64,0,0,0-9.75,4.05,1.44,1.44,0,0,1-2,0,14.12,14.12,0,0,0-8.74-4c-.39,0-.7,0-1,0h-.22A13.8,13.8,0,0,0,6.69,17.28a13.43,13.43,0,0,0,.2,2.45l0,.11H17V17.55a5.47,5.47,0,0,1,5.47-5.47Z" transform="translate(-0.13 -0.13)"/><path class="cls-2" d="M41.92.37h.27A17,17,0,0,1,58.93,17.26a17.3,17.3,0,0,1-.16,2.38.33.33,0,0,0,.07.23l.1.09h1.29C62,20,62,20.62,62,21.75a1.35,1.35,0,0,1-1.36,1.35H57.93l-.06.17a16.94,16.94,0,0,1-5.53,7.54l-.1.08V35.8a25.28,25.28,0,0,1-9.38,19.72l-.43.36H35.36V42.14A4.19,4.19,0,0,0,31.18,38a4.38,4.38,0,0,0-.88.09A4.27,4.27,0,0,0,27,42.29V55.88H19.92l-.43-.36A25.31,25.31,0,0,1,10.11,35.8V30.89l-.1-.08a17,17,0,0,1-5.53-7.55l-.07-.16H1.73A1.35,1.35,0,0,1,.38,21.71C.38,20.58.65,20,2.13,20H3.29a.29.29,0,0,0,.22-.09l.08-.12v-.11a15.85,15.85,0,0,1-.15-2.38A17,17,0,0,1,20.16.38h.27A16.79,16.79,0,0,1,31,4.09l.09.06.11,0,.06,0,0,0A16.8,16.8,0,0,1,41.92.37M6.81,20H17.14V17.55a5.36,5.36,0,0,1,5.35-5.35H39.86a5.36,5.36,0,0,1,5.35,5.35V20H55.54l0-.2a14.74,14.74,0,0,0,.21-2.48A13.9,13.9,0,0,0,41.93,3.51,13.77,13.77,0,0,0,32.1,7.6a1.33,1.33,0,0,1-.92.37,1.35,1.35,0,0,1-.95-.39,14.25,14.25,0,0,0-8.79-4c-.37,0-.68,0-1,0h-.22A13.93,13.93,0,0,0,6.56,17.28a14.74,14.74,0,0,0,.21,2.48l0,.2m30.1,0h5.16V17.55a2.21,2.21,0,0,0-2.21-2.21h-3V20m-8.33,0h5.19V15.34H28.58V20m-8.3,0h5.16V15.34h-3a2.21,2.21,0,0,0-2.21,2.21V20m2.21,10.9a5.35,5.35,0,0,1-5.35-5.34V23.1H8.06L8,23.22l-.08.12.06.12a14,14,0,0,0,4.6,5.34l.68.46V35.8A22.25,22.25,0,0,0,21,52.68l.07.06h2.8V42.14a7.34,7.34,0,0,1,7.33-7.33,7.7,7.7,0,0,1,1.64.18,7.48,7.48,0,0,1,5.68,7.38V52.74h2.81l.07-.06A22.29,22.29,0,0,0,49.11,35.8V29.26l.67-.46a14,14,0,0,0,4.6-5.34l.06-.12-.08-.12-.07-.12H45.21v2.42a5.35,5.35,0,0,1-5.35,5.34H22.49m14.42-3.13h3a2.22,2.22,0,0,0,2.21-2.21V23.1H36.91v4.63m-8.33,0h5.19V23.1H28.58v4.63m-6.09,0h3V23.1H20.28v2.42a2.22,2.22,0,0,0,2.21,2.21M41.92.13A17,17,0,0,0,31.18,3.88h0A17.06,17.06,0,0,0,20.43.13h-.28a17.3,17.3,0,0,0-17,17.13,16.08,16.08,0,0,0,.15,2.41,0,0,0,0,1,0,0H2.13c-1.75,0-2,.9-2,2v0a1.59,1.59,0,0,0,1.6,1.6H4.25A17.17,17.17,0,0,0,9.86,31h0V35.8a25.69,25.69,0,0,0,9.47,19.92l.49.4h7.42V42.29a4,4,0,0,1,3.11-4,4.76,4.76,0,0,1,.83-.08,3.94,3.94,0,0,1,3.93,3.94v14h7.42l.49-.4A25.69,25.69,0,0,0,52.49,35.8V31h0a17.27,17.27,0,0,0,5.62-7.66h2.51a1.6,1.6,0,0,0,1.61-1.6v0c0-1.1,0-2-2-2H59.06a0,0,0,0,1,0,0,17.53,17.53,0,0,0,.16-2.41A17.32,17.32,0,0,0,42.2.13ZM7,19.71H7a13.9,13.9,0,0,1-.21-2.43A13.68,13.68,0,0,1,20.21,3.77h.22c.3,0,.61,0,1,0a14,14,0,0,1,8.64,4l0,0a1.58,1.58,0,0,0,2.19,0,13.53,13.53,0,0,1,9.66-4A13.69,13.69,0,0,1,55.54,17.28a13.9,13.9,0,0,1-.21,2.43H45.46V17.55a5.6,5.6,0,0,0-5.6-5.6H22.49a5.6,5.6,0,0,0-5.6,5.6v2.16H7Zm30.14,0h0V15.59h2.7a2,2,0,0,1,2,2v2.16H37.16Zm-8.33,0h0V15.59h4.69v4.12H28.83Zm-8.3,0h0V17.55a2,2,0,0,1,2-2h2.7v4.12H20.53Zm2,11.4H39.86a5.6,5.6,0,0,0,5.6-5.59V23.35h8.69a13.54,13.54,0,0,1-4.51,5.24l-.78.54V35.8a22,22,0,0,1-7.65,16.69H38.75V42.37a7.71,7.71,0,0,0-5.88-7.62,7.58,7.58,0,0,0-9.27,7.39V52.49H21.14A21.94,21.94,0,0,1,13.5,35.8V29.13l-.79-.54A13.54,13.54,0,0,1,8.2,23.35h8.69v2.17a5.6,5.6,0,0,0,5.6,5.59Zm14.67-3.63h0V23.35h4.66v2.17a2,2,0,0,1-2,2Zm-8.33,0h0V23.35h4.69v4.13H28.83Zm-6.34,0a2,2,0,0,1-2-2V23.35h4.66v4.13h-2.7Z" transform="translate(-0.13 -0.13)"/></g></g></svg>