<svg xmlns="http://www.w3.org/2000/svg" viewBox="0 0 56 56"><defs><style>.cls-1{fill:#1bb3cc;}</style></defs><g id="Capa_2" data-name="Capa 2"><g id="Base"><path class="cls-1" d="M55,11.85l-2.7-2.69a1.09,1.09,0,0,0-1.55,0,1.08,1.08,0,0,0,0,1.54l2.7,2.7a1.32,1.32,0,0,1-1.86,1.86L48.32,12h0L44,7.68h0L40.74,4.43A1.32,1.32,0,0,1,42.6,2.57l2.2,2.21a1.11,1.11,0,0,0,1.55,0,1.09,1.09,0,0,0,0-1.55L44.15,1A3.5,3.5,0,1,0,39.2,6l2.47,2.48-4.29,4.29-2.63-2.63L33.5,8.86A1.09,1.09,0,0,0,32,10.4l.48.48L14.07,29.25a9,9,0,0,0-2,9.7L7.83,43.22a3.48,3.48,0,0,0-1,2.47,3.54,3.54,0,0,0,.38,1.58L.32,54.13A1.1,1.1,0,0,0,1.09,56a1.13,1.13,0,0,0,.78-.32l6.86-6.86a3.54,3.54,0,0,0,1.58.38,3.48,3.48,0,0,0,2.47-1l4.27-4.27a8.93,8.93,0,0,0,9.7-2L45.12,23.57l.48.48a1.09,1.09,0,1,0,1.54-1.55l-1.25-1.25h0l-2.63-2.63,4.29-4.29L50,16.81a3.51,3.51,0,0,0,4.95,0A3.52,3.52,0,0,0,55,11.85ZM11.23,46.62a1.27,1.27,0,0,1-.92.39,1.29,1.29,0,0,1-.93-.39,1.31,1.31,0,0,1,0-1.85l3.83-3.83a9.35,9.35,0,0,0,1.85,1.85ZM43.57,22l-3.12,3.12L38.31,23a1.1,1.1,0,1,0-1.55,1.55l2.14,2.14L35.29,30.3l-2.14-2.14a1.08,1.08,0,0,0-1.54,0,1.09,1.09,0,0,0,0,1.55l2.14,2.14-3.61,3.61L28,33.32a1.09,1.09,0,0,0-1.54,1.54L28.59,37l-3.38,3.39-.24.22-2.13-2.14a1.11,1.11,0,0,0-1.55,0,1.09,1.09,0,0,0,0,1.55l1.8,1.8a6.78,6.78,0,0,1-7.48-11L34,12.43Zm-1.86-4.95-2.78-2.78L43.22,10,46,12.78Z"/><path class="cls-1" d="M49.56,6.44a1.1,1.1,0,0,0-.77-.32,1.14,1.14,0,0,0-.78.32,1.1,1.1,0,0,0-.32.77,1.09,1.09,0,0,0,1.1,1.1A1.1,1.1,0,0,0,49.56,8a1.14,1.14,0,0,0,.32-.78A1.1,1.1,0,0,0,49.56,6.44Z"/><path class="cls-1" d="M28.59,22.82a1.09,1.09,0,0,0-1.55,0l-8.45,8.45a1.08,1.08,0,0,0,0,1.54,1.05,1.05,0,0,0,.77.32,1.09,1.09,0,0,0,.78-.32l8.45-8.45A1.08,1.08,0,0,0,28.59,22.82Z"/><path class="cls-1" d="M31.31,20.09a1.09,1.09,0,0,0-1.86.78,1.07,1.07,0,0,0,.32.77,1.09,1.09,0,0,0,1.54,0,1.07,1.07,0,0,0,.32-.77A1.1,1.1,0,0,0,31.31,20.09Z"/></g></g></svg>