<svg xmlns="http://www.w3.org/2000/svg" viewBox="0 0 67.2 56"><defs><style>.cls-1{fill:#1bb3cc;}</style></defs><g id="Capa_2" data-name="Capa 2"><g id="Base"><path class="cls-1" d="M66.28,20.18a.68.68,0,0,0-.2,0h-65A1.12,1.12,0,0,0,0,21.28a1.36,1.36,0,0,0,0,.2A31.11,31.11,0,0,0,30.64,47h5.92A31.11,31.11,0,0,0,67.18,21.48,1.12,1.12,0,0,0,66.28,20.18ZM36.56,44.8H30.64A28.9,28.9,0,0,1,9.38,35.47a1.13,1.13,0,0,1,.84-1.87h3.22a1.12,1.12,0,0,1,1.12,1.12v1.12A1.12,1.12,0,0,0,15.68,37h0a1.12,1.12,0,0,0,1.12-1.12V34.72a1.12,1.12,0,0,1,1.12-1.12H22.4a1.12,1.12,0,0,1,1.12,1.12V39.2a1.12,1.12,0,0,0,1.12,1.12h0a1.12,1.12,0,0,0,1.12-1.12V34.72a1.12,1.12,0,0,1,1.12-1.12h4.48a1.12,1.12,0,0,1,1.12,1.12V39.2a1.12,1.12,0,0,0,1.12,1.12h0a1.12,1.12,0,0,0,1.12-1.12V34.72a1.12,1.12,0,0,1,1.12-1.12h4.48a1.12,1.12,0,0,1,1.12,1.12V39.2a1.12,1.12,0,0,0,1.12,1.12h0a1.12,1.12,0,0,0,1.12-1.12V34.72A1.12,1.12,0,0,1,44.8,33.6h4.48a1.12,1.12,0,0,1,1.12,1.12v1.12A1.12,1.12,0,0,0,51.52,37h0a1.12,1.12,0,0,0,1.12-1.12V34.72a1.12,1.12,0,0,1,1.12-1.12H57a1.13,1.13,0,0,1,.84,1.87A28.9,28.9,0,0,1,36.56,44.8ZM60.34,31.36H53.76a1.12,1.12,0,0,1-1.12-1.12V26.88a1.12,1.12,0,0,0-1.12-1.12h0a1.12,1.12,0,0,0-1.12,1.12v3.36a1.12,1.12,0,0,1-1.12,1.12H44.8a1.12,1.12,0,0,1-1.12-1.12V26.88a1.12,1.12,0,0,0-1.12-1.12h0a1.12,1.12,0,0,0-1.12,1.12v3.36a1.12,1.12,0,0,1-1.12,1.12H35.84a1.12,1.12,0,0,1-1.12-1.12V26.88a1.12,1.12,0,0,0-1.12-1.12h0a1.12,1.12,0,0,0-1.12,1.12v3.36a1.12,1.12,0,0,1-1.12,1.12H26.88a1.12,1.12,0,0,1-1.12-1.12V26.88a1.12,1.12,0,0,0-1.12-1.12h0a1.12,1.12,0,0,0-1.12,1.12v3.36a1.12,1.12,0,0,1-1.12,1.12H17.92a1.12,1.12,0,0,1-1.12-1.12V26.88a1.12,1.12,0,0,0-1.12-1.12h0a1.12,1.12,0,0,0-1.12,1.12v3.36a1.12,1.12,0,0,1-1.12,1.12H6.86a1.14,1.14,0,0,1-1-.54,28.74,28.74,0,0,1-3-7A1.12,1.12,0,0,1,3.94,22.4H63.26a1.12,1.12,0,0,1,1.07,1.45,28.74,28.74,0,0,1-3,7A1.14,1.14,0,0,1,60.34,31.36Z"/><path class="cls-1" d="M11.18,5.41a1.13,1.13,0,0,0-.92-.92A4.33,4.33,0,0,1,6.7.93,1.11,1.11,0,0,0,5.41,0a1.12,1.12,0,0,0-.92.91A4.31,4.31,0,0,1,.94,4.49,1.13,1.13,0,0,0,0,5.79a1.12,1.12,0,0,0,.92.91,4.33,4.33,0,0,1,3.55,3.56,1.14,1.14,0,0,0,1.3.92,1.12,1.12,0,0,0,.91-.92A4.36,4.36,0,0,1,10.26,6.7,1.12,1.12,0,0,0,11.18,5.41ZM5.6,7.2A6.75,6.75,0,0,0,4,5.6,6.75,6.75,0,0,0,5.6,4,6.75,6.75,0,0,0,7.2,5.6,6.75,6.75,0,0,0,5.6,7.2Z"/><path class="cls-1" d="M63.81,38.06a1.14,1.14,0,0,0-1.49.48A29.44,29.44,0,0,1,36.59,53.76h-6A29.44,29.44,0,0,1,4.88,38.54a1.14,1.14,0,0,0-1.49-.48h0a1.13,1.13,0,0,0-.5,1.54A31.71,31.71,0,0,0,30.61,56h6A31.71,31.71,0,0,0,64.31,39.6a1.13,1.13,0,0,0-.5-1.54Z"/><path class="cls-1" d="M41.09,10.22a2.24,2.24,0,0,0-1.91.47l-4.86,4.06a1.14,1.14,0,0,1-1.44,0L28,10.69a2.27,2.27,0,0,0-1.91-.47L2,15.47a1.12,1.12,0,0,0-.85,1.33h0a1.13,1.13,0,0,0,1.33.86l23.6-5.14a1.12,1.12,0,0,1,.95.23l5.17,4.31a2.23,2.23,0,0,0,2.86,0l5.17-4.31a1.12,1.12,0,0,1,.95-.23l23.6,5.14a1.13,1.13,0,0,0,1.33-.86h0a1.11,1.11,0,0,0-.85-1.33Z"/></g></g></svg>