<svg xmlns="http://www.w3.org/2000/svg" viewBox="0 0 66.25 56"><defs><style>.cls-1{fill:#1bb3cc;}</style></defs><g id="Capa_2" data-name="Capa 2"><g id="Base"><path class="cls-1" d="M11.34,24.19a8.1,8.1,0,0,0,6.72-3.56,4.27,4.27,0,0,0,2.75,1.18,12,12,0,0,0,10.93,6.93h3A12,12,0,0,0,45.64,21.8a4.21,4.21,0,0,0,2.7-1.2,8,8,0,0,0,6.74,3.59,1.59,1.59,0,0,0,1.59-1.59V11.67a6.74,6.74,0,0,0-6.74-6.73H47.6a2.59,2.59,0,0,0-2.39-1.58h-.47a2.64,2.64,0,0,0-1.32.36A12,12,0,0,0,34.71,0h-3A12,12,0,0,0,23,3.74a2.51,2.51,0,0,0-1.34-.38H21.2a2.6,2.6,0,0,0-2.39,1.58H16.48a6.74,6.74,0,0,0-6.73,6.73V22.6A1.59,1.59,0,0,0,11.34,24.19Zm34-4.34-.23,0a1,1,0,0,0-1,.6,10.08,10.08,0,0,1-9.4,6.34h-3a10.08,10.08,0,0,1-9.39-6.35,1,1,0,0,0-.91-.61l-.18,0-.25,0a2.32,2.32,0,0,1-2.32-2.32v-1.1A1.4,1.4,0,0,1,20.09,15h.54a1,1,0,0,0,1-1v-.11a10.19,10.19,0,0,1,8-3.87h7.29a10.16,10.16,0,0,1,8,3.87v.11a1,1,0,0,0,1,1h.25a1.6,1.6,0,0,1,1.6,1.6v.93A2.28,2.28,0,0,1,45.38,19.85Zm9.33-8.18V22.22a6.13,6.13,0,0,1-5.23-3.58,4.18,4.18,0,0,0,.14-1.07v-.93a3.52,3.52,0,0,0-.7-2.11s0-1.83,0-2a1,1,0,1,0-2,.19,4,4,0,0,1,0,.49v0l-.16,0V12.09a11.27,11.27,0,0,0-.15-1.85,2.64,2.64,0,0,0,1.16-2.16V6.9h2.12A4.78,4.78,0,0,1,54.71,11.67Zm-10-6.35h.47a.64.64,0,0,1,.64.63V7.39a12.19,12.19,0,0,0-1.13-2.07ZM31.74,2h3a10.14,10.14,0,0,1,10.07,9.11,12.15,12.15,0,0,0-7.91-3H29.58a12.13,12.13,0,0,0-7.91,3A10.13,10.13,0,0,1,31.74,2ZM21.2,5.32h.53a12.07,12.07,0,0,0-1.16,2.15V6A.63.63,0,0,1,21.2,5.32Zm-9.49,6.35A4.78,4.78,0,0,1,16.48,6.9h2.13V8.08a2.6,2.6,0,0,0,1.18,2.18,12.32,12.32,0,0,0-.14,1.83v1l-.2,0a3.67,3.67,0,0,1,0-.46,1,1,0,0,0-2-.19c0,.22,0,1.83,0,1.83a3.29,3.29,0,0,0-.76,2.12v1.1a4.16,4.16,0,0,0,.17,1.18,6.14,6.14,0,0,1-5.19,3.51Z"/><path class="cls-1" d="M30,15.56A1.46,1.46,0,1,1,28.5,14.1,1.46,1.46,0,0,1,30,15.56Z"/><path class="cls-1" d="M39.41,15.56A1.46,1.46,0,1,1,38,14.1,1.47,1.47,0,0,1,39.41,15.56Z"/><path class="cls-1" d="M37.63,18.11H28.82a1.46,1.46,0,0,0-1.09.49,1.48,1.48,0,0,0-.37,1.14,5.9,5.9,0,0,0,11.73,0,1.48,1.48,0,0,0-1.46-1.63ZM33.22,23a3.93,3.93,0,0,1-3.81-3H37A3.94,3.94,0,0,1,33.22,23Z"/><path class="cls-1" d="M63.42,40.41V39.35A12.11,12.11,0,0,0,51.33,27.26h-3A12.11,12.11,0,0,0,36.28,39.35v1a3.35,3.35,0,0,0-2.92,3.33v1.09a4.29,4.29,0,0,0,4.08,4.28A12,12,0,0,0,48.37,56h3a12,12,0,0,0,10.94-6.93,4.25,4.25,0,0,0,4-4.24V43.9A3.57,3.57,0,0,0,63.42,40.41ZM48.37,29.22h3a10.14,10.14,0,0,1,10.08,9.11,12.14,12.14,0,0,0-7.91-2.95H46.2a12.11,12.11,0,0,0-7.9,2.95A10.13,10.13,0,0,1,48.37,29.22ZM64.29,44.83A2.28,2.28,0,0,1,62,47.11a1,1,0,0,1-.23,0,1,1,0,0,0-1.05.61A10.1,10.1,0,0,1,51.33,54h-3A10.08,10.08,0,0,1,39,47.69a1,1,0,0,0-.91-.62l-.18,0a1.1,1.1,0,0,1-.25,0,2.32,2.32,0,0,1-2.32-2.32V43.7a1.4,1.4,0,0,1,1.4-1.4h.54a1,1,0,0,0,1-1v-.11a10.19,10.19,0,0,1,8-3.87h7.3a10.16,10.16,0,0,1,8,3.87v.11a1,1,0,0,0,1,1h.25a1.6,1.6,0,0,1,1.6,1.6Z"/><path class="cls-1" d="M46.59,42.82a1.46,1.46,0,1,1-1.46-1.46A1.46,1.46,0,0,1,46.59,42.82Z"/><path class="cls-1" d="M56,42.82a1.46,1.46,0,1,1-1.46-1.46A1.46,1.46,0,0,1,56,42.82Z"/><path class="cls-1" d="M54.26,45.37H45.45a1.46,1.46,0,0,0-1.09.49A1.49,1.49,0,0,0,44,47a5.9,5.9,0,0,0,11.73,0,1.48,1.48,0,0,0-1.46-1.63Zm-4.41,4.92A3.93,3.93,0,0,1,46,47.34h7.63A3.94,3.94,0,0,1,49.85,50.29Z"/><path class="cls-1" d="M30.07,40.41V39.35A12.11,12.11,0,0,0,18,27.26H15A12.11,12.11,0,0,0,2.92,39.35v1A3.36,3.36,0,0,0,0,43.7v1.09a4.29,4.29,0,0,0,4.08,4.28A12,12,0,0,0,15,56h3a12,12,0,0,0,10.93-6.93,4.25,4.25,0,0,0,4-4.24V43.9A3.57,3.57,0,0,0,30.07,40.41Zm.86,4.42a2.28,2.28,0,0,1-2.28,2.28,1,1,0,0,1-.23,0,1,1,0,0,0-1.05.61A10.09,10.09,0,0,1,18,54H15a10.08,10.08,0,0,1-9.39-6.35,1,1,0,0,0-.91-.62l-.18,0a1.1,1.1,0,0,1-.25,0A2.32,2.32,0,0,1,2,44.79V43.7a1.4,1.4,0,0,1,1.4-1.4H3.9a1,1,0,0,0,1-1v-.11a10.16,10.16,0,0,1,8-3.87h7.29a10,10,0,0,1,2,.19,1,1,0,1,0,.39-1.92,11.76,11.76,0,0,0-2.37-.23H12.85a12.14,12.14,0,0,0-7.91,2.95A10.14,10.14,0,0,1,15,29.22h3a10.14,10.14,0,0,1,10.07,9.1,11.68,11.68,0,0,0-1.44-1.07,1,1,0,0,0-1.05,1.66,10,10,0,0,1,2.54,2.3v.11a1,1,0,0,0,1,1h.24a1.6,1.6,0,0,1,1.6,1.6Z"/><path class="cls-1" d="M13.23,42.82a1.46,1.46,0,1,1-1.46-1.46A1.46,1.46,0,0,1,13.23,42.82Z"/><path class="cls-1" d="M22.68,42.82a1.46,1.46,0,1,1-1.46-1.46A1.46,1.46,0,0,1,22.68,42.82Z"/><path class="cls-1" d="M20.9,45.37H12.09A1.48,1.48,0,0,0,10.63,47a5.9,5.9,0,0,0,11.73,0A1.49,1.49,0,0,0,22,45.86,1.46,1.46,0,0,0,20.9,45.37Zm-4.4,4.92a3.94,3.94,0,0,1-3.82-2.95h7.63A3.93,3.93,0,0,1,16.5,50.29Z"/></g></g></svg>