<svg xmlns="http://www.w3.org/2000/svg" viewBox="0 0 56 56"><defs><style>.cls-1{fill:#1bb3cc;}.cls-2{fill:#fff;}</style></defs><g id="Capa_2" data-name="Capa 2"><g id="Base"><path class="cls-1" d="M1.64,56A1.52,1.52,0,0,1,.57,53.41L3.3,50.68a1.52,1.52,0,0,1,2.15,2.14L2.71,55.56A1.5,1.5,0,0,1,1.64,56Z" transform="translate(0 -0.13)"/><path class="cls-2" d="M4.37,50.36a1.35,1.35,0,0,1,1,.41,1.38,1.38,0,0,1,0,2L2.62,55.47a1.38,1.38,0,0,1-1,.4,1.38,1.38,0,0,1-1-.4,1.4,1.4,0,0,1,0-2l2.73-2.73a1.34,1.34,0,0,1,1-.41m0-.25a1.67,1.67,0,0,0-1.16.48L.48,53.32A1.64,1.64,0,1,0,2.8,55.64l2.74-2.73a1.64,1.64,0,0,0,0-2.32,1.68,1.68,0,0,0-1.17-.48Z" transform="translate(0 -0.13)"/><path class="cls-1" d="M3.5,48a1.58,1.58,0,0,1-.68-.16L1.07,47a1.51,1.51,0,0,1-.76-.88A1.48,1.48,0,0,1,.39,45a1.51,1.51,0,0,1,1.36-.84,1.45,1.45,0,0,1,.68.16l1.75.87a1.53,1.53,0,0,1,.68,2A1.51,1.51,0,0,1,3.5,48Z" transform="translate(0 -0.13)"/><path class="cls-2" d="M1.75,44.23a1.32,1.32,0,0,1,.62.15l1.75.88a1.38,1.38,0,0,1,.62,1.86,1.36,1.36,0,0,1-1.24.77,1.32,1.32,0,0,1-.62-.15l-1.75-.87a1.4,1.4,0,0,1-.7-.81A1.35,1.35,0,0,1,.51,45a1.38,1.38,0,0,1,1.24-.77m0-.25A1.64,1.64,0,0,0,1,47.09L2.77,48a1.57,1.57,0,0,0,.73.17A1.64,1.64,0,0,0,4.23,45l-1.75-.87A1.58,1.58,0,0,0,1.75,44Z" transform="translate(0 -0.13)"/><path class="cls-1" d="M10.5,55.89a1.51,1.51,0,0,1-1.36-.84L8.27,53.3a1.52,1.52,0,0,1,.68-2,1.44,1.44,0,0,1,.67-.16A1.51,1.51,0,0,1,11,52l.88,1.75a1.52,1.52,0,0,1-1.36,2.19Z" transform="translate(0 -0.13)"/><path class="cls-2" d="M9.62,51.23a1.4,1.4,0,0,1,1.25.77l.87,1.75a1.36,1.36,0,0,1-.06,1.35A1.38,1.38,0,0,1,9.26,55l-.88-1.75A1.4,1.4,0,0,1,9,51.38a1.38,1.38,0,0,1,.62-.15m0-.25a1.65,1.65,0,0,0-1.46,2.38L9,55.11A1.64,1.64,0,1,0,12,53.64l-.88-1.75A1.65,1.65,0,0,0,9.62,51Z" transform="translate(0 -0.13)"/><path class="cls-1" d="M7,43.64a1.53,1.53,0,0,1-1.44-1L4.69,40a1.51,1.51,0,1,1,2.87-1l.88,2.63a1.48,1.48,0,0,1-.08,1.15,1.57,1.57,0,0,1-.88.76,1.61,1.61,0,0,1-.48.08Z" transform="translate(0 -0.13)"/><path class="cls-2" d="M6.13,38.11a1.38,1.38,0,0,1,1.31,1l.88,2.63a1.38,1.38,0,0,1-.88,1.75,1.32,1.32,0,0,1-.44.08,1.4,1.4,0,0,1-1.32-1l-.87-2.62a1.38,1.38,0,0,1,.88-1.76,1.31,1.31,0,0,1,.44-.07m0-.25a1.82,1.82,0,0,0-.52.08,1.65,1.65,0,0,0-1,2.08l.87,2.62A1.65,1.65,0,0,0,7,43.77a1.58,1.58,0,0,0,.52-.09,1.64,1.64,0,0,0,1-2.07L7.68,39a1.64,1.64,0,0,0-1.55-1.12Z" transform="translate(0 -0.13)"/><path class="cls-1" d="M16.63,51.52a1.51,1.51,0,0,1-.48-.08l-2.63-.88a1.57,1.57,0,0,1-.88-.76,1.48,1.48,0,0,1-.08-1.15,1.53,1.53,0,0,1,1.44-1,1.61,1.61,0,0,1,.48.08l2.62.87a1.52,1.52,0,0,1-.47,3Z" transform="translate(0 -0.13)"/><path class="cls-2" d="M14,47.73a1.32,1.32,0,0,1,.44.08l2.62.87a1.39,1.39,0,0,1-.43,2.71,1.31,1.31,0,0,1-.44-.07l-2.63-.88A1.39,1.39,0,0,1,14,47.73m0-.25a1.64,1.64,0,0,0-.52,3.2l2.63.88a1.82,1.82,0,0,0,.52.08,1.64,1.64,0,0,0,.51-3.2l-2.62-.87a1.58,1.58,0,0,0-.52-.09Z" transform="translate(0 -0.13)"/><path class="cls-1" d="M48.12,56a1.52,1.52,0,0,1-1.51-1.52V48.93l-1-1.06a2.61,2.61,0,0,0-3.7,0,6.47,6.47,0,0,1-9.15-9.14l7-7a5.06,5.06,0,0,0,0-7.13l-.38-.39-.09.09c-1.26,1.19-2,1.93-4.19,4.13L33.49,30a160.86,160.86,0,0,1-13,11.62l-.15.13h0a4.3,4.3,0,0,1-4.36.6l-.07,0-7,7a1.51,1.51,0,0,1-1.08.45A1.52,1.52,0,0,1,6.8,47.18l7-7,0-.08a4.26,4.26,0,0,1,.59-4.35,169.63,169.63,0,0,1,14-15.41l.89-.89A144.53,144.53,0,0,0,43.66,3,6.79,6.79,0,0,1,49.12.25a6.77,6.77,0,0,1,4.16,12.09C48.84,15.82,45.06,19,41.72,22l-.09.09.3.3a8.09,8.09,0,0,1,0,11.43l-7,7a3.44,3.44,0,0,0,0,4.86,3.42,3.42,0,0,0,4.85,0,5.65,5.65,0,0,1,8,0l1,1,5.65,0a1.51,1.51,0,0,1,1.51,1.52v6.23A1.51,1.51,0,0,1,54.36,56Zm1.52-3h3.2v-3.2h-3.2ZM25.32,27.77c-3,3.17-5.89,6.49-8.59,9.87a1.25,1.25,0,0,0,1,2,1.32,1.32,0,0,0,.78-.27c3.31-2.65,6.62-5.54,9.86-8.6l.09-.09-3-3ZM38.21,14.45C35.05,18,32.59,20.43,30,23c-.78.77-1.56,1.55-2.38,2.38l-.09.09,3.1,3.1.09-.08c.85-.83,1.63-1.63,2.42-2.41,2.43-2.45,4.74-4.76,8.59-8.15l.12-.11-.13-.09a12.94,12.94,0,0,1-3.31-3.29l-.09-.13ZM49.11,3.28a3.74,3.74,0,0,0-3,1.53c-1.71,2.32-3.61,4.7-5.64,7.07L40.4,12l.05.08a9.75,9.75,0,0,0,3.73,3.7l.08,0,.06-.06C46.48,13.89,48.8,12,51.41,10a3.71,3.71,0,0,0,1.25-4.1l-.06-.19L51,7.32a1.51,1.51,0,0,1-1.08.45A1.52,1.52,0,0,1,48.8,5.18l1.65-1.65-.19-.07A3.74,3.74,0,0,0,49.11,3.28Z" transform="translate(0 -0.13)"/><path class="cls-2" d="M49.11.38a6.64,6.64,0,0,1,6.63,7,6.69,6.69,0,0,1-2.54,4.84c-4.44,3.47-8.22,6.64-11.56,9.68l-.2.17.19.19.21.21a8,8,0,0,1,0,11.25l-7,7a3.57,3.57,0,0,0,0,5,3.56,3.56,0,0,0,5,0,5.53,5.53,0,0,1,7.82,0l1,1,.07.07h5.66a1.39,1.39,0,0,1,1.39,1.39v6.23a1.4,1.4,0,0,1-1.39,1.4H48.12a1.4,1.4,0,0,1-1.39-1.4V48.83l-.07-.08-1-1a2.75,2.75,0,0,0-3.88,0,6.34,6.34,0,0,1-9-9l7-7a5.18,5.18,0,0,0,0-7.31l-.3-.3L39.41,24l-.18.17c-1.26,1.2-2,1.94-4.22,4.16l-1.6,1.6A158.75,158.75,0,0,1,20.46,41.54l-.16.13h0a4.14,4.14,0,0,1-4.23.57l-.15-.06-.12.12L8.86,49.23a1.35,1.35,0,0,1-1,.41,1.39,1.39,0,0,1-1-2.37l6.94-6.94.12-.12-.07-.16a4.16,4.16,0,0,1,.58-4.23,171.85,171.85,0,0,1,14-15.39l.89-.89A143.9,143.9,0,0,0,43.76,3.08,6.65,6.65,0,0,1,49.11.38M44.27,15.92l.13-.11c2.17-1.83,4.48-3.72,7.09-5.75a3.82,3.82,0,0,0,1.29-4.23l-.13-.39-.28.29-1.51,1.5a1.35,1.35,0,0,1-1,.41,1.39,1.39,0,0,1-1-2.37L50.4,3.76l.29-.29-.39-.13a3.94,3.94,0,0,0-1.19-.18A3.88,3.88,0,0,0,46,4.73c-1.71,2.32-3.6,4.7-5.64,7.07l-.11.14.09.15a10,10,0,0,0,3.78,3.75l.15.08M30.62,28.78l.18-.17c.84-.83,1.63-1.62,2.41-2.41,2.44-2.45,4.74-4.76,8.59-8.15l.25-.21-.27-.18A12.71,12.71,0,0,1,38.5,14.4l-.18-.26-.21.23c-3.15,3.51-5.61,6-8.21,8.57-.77.77-1.56,1.55-2.38,2.39l-.18.17.18.18,2.93,2.92.17.18m-12.91,11a1.32,1.32,0,0,0,.85-.3c3.32-2.64,6.64-5.54,9.88-8.6l.18-.18-.18-.18-2.85-2.85-.18-.18-.18.19c-3,3.17-5.89,6.49-8.6,9.87a1.37,1.37,0,0,0,1.08,2.23m31.81,13.3H53V49.64H49.52v3.45m-.41-53a6.81,6.81,0,0,0-5.55,2.81A145.3,145.3,0,0,1,29.19,19.36,180.07,180.07,0,0,0,14.26,35.67a4.4,4.4,0,0,0-.61,4.48L6.71,47.09a1.65,1.65,0,0,0,1.16,2.8A1.68,1.68,0,0,0,9,49.41L16,42.47a4.38,4.38,0,0,0,4.49-.61A158.23,158.23,0,0,0,33.58,30.11c3.54-3.53,4.3-4.31,5.82-5.76l.3.29a4.94,4.94,0,0,1,0,7l-7,7a6.59,6.59,0,0,0,4.66,11.25A6.54,6.54,0,0,0,42,48a2.51,2.51,0,0,1,3.54,0l1,1v5.55a1.65,1.65,0,0,0,1.64,1.65h6.24A1.65,1.65,0,0,0,56,54.48V48.25a1.64,1.64,0,0,0-1.64-1.64H48.8l-1-1a5.79,5.79,0,0,0-8.18,0,3.27,3.27,0,0,1-2.34,1A3.31,3.31,0,0,1,35,41l7-7a8.22,8.22,0,0,0,0-11.61l-.21-.21c3.71-3.37,7.63-6.6,11.55-9.67A6.87,6.87,0,0,0,54,2.14a6.81,6.81,0,0,0-4.85-2ZM44.24,15.62A9.72,9.72,0,0,1,40.55,12c2.06-2.4,3.93-4.76,5.65-7.09h0a3.6,3.6,0,0,1,2.91-1.47,3.48,3.48,0,0,1,1.11.17L48.71,5.09a1.65,1.65,0,0,0,1.16,2.8A1.68,1.68,0,0,0,51,7.41l1.5-1.51a3.58,3.58,0,0,1-1.21,4c-2.56,2-4.91,3.91-7.09,5.76ZM30.62,28.43,27.7,25.5c3.59-3.63,6.51-6.4,10.6-11a12.86,12.86,0,0,0,3.34,3.32c-5.12,4.51-7.6,7.2-11,10.57ZM17.71,39.54a1.13,1.13,0,0,1-.8-.33,1.11,1.11,0,0,1-.08-1.49c2.71-3.39,5.59-6.7,8.59-9.86l2.84,2.85c-3,2.82-6.28,5.73-9.85,8.59a1.16,1.16,0,0,1-.7.24Zm32.06,13.3v-3h2.95v3Z" transform="translate(0 -0.13)"/></g></g></svg>