<svg xmlns="http://www.w3.org/2000/svg" viewBox="0 0 292.46 166.68"><defs><style>.cls-1{font-size:36px;font-family:KBbubblegum;letter-spacing:0.03em;}.cls-2{fill:#cc2e78;}.cls-3,.cls-4{letter-spacing:0.04em;}.cls-4,.cls-6{fill:#000;}.cls-5,.cls-7{fill:#fbed21;}.cls-7{stroke:#cc2e78;stroke-linecap:round;stroke-miterlimit:10;stroke-width:3px;}.cls-8{fill:#fcee21;}</style></defs><g id="Capa_2" data-name="Capa 2"><g id="Capa_1-2" data-name="Capa 1"><text class="cls-1" transform="translate(10.51 50.2)">Los <tspan class="cls-2" x="73.65" y="0">odontologos</tspan><tspan class="cls-3" x="269.89" y="0"> </tspan><tspan class="cls-2"><tspan x="3.33" y="44">favoritos</tspan><tspan class="cls-4" x="155.1" y="44" xml:space="preserve"> de los </tspan></tspan><tspan class="cls-5"><tspan x="70.11" y="88">peques</tspan><tspan class="cls-6" x="190.28" y="88">!</tspan></tspan></text><line class="cls-7" x1="186.85" y1="24.84" x2="191.87" y2="16.85"/><path class="cls-8" d="M82,154.08c7.55-3.25,16-1.85,23.69.24,8.17,2.22,16.17,5.4,24.72,5.82a31.81,31.81,0,0,0,12.08-1.74c3.68-1.28,7.16-3.06,10.75-4.58a30.47,30.47,0,0,1,10.87-2.75,44.36,44.36,0,0,1,11.05,1.37c8,1.78,16.28,4.34,24.36,1.71,1.82-.6,1-3.49-.8-2.89-7.21,2.35-14.65.15-21.76-1.49a58.25,58.25,0,0,0-11-1.7A29.28,29.28,0,0,0,154.83,150c-7.53,2.76-14.31,7.17-22.59,7.2-8.67,0-16.88-3.28-25.11-5.58-8.74-2.43-18.06-3.81-26.65-.11-1.77.77-.24,3.35,1.51,2.59Z"/><text class="cls-1" transform="translate(9.5 26.48) rotate(180)">!</text></g></g></svg>