<svg xmlns="http://www.w3.org/2000/svg" viewBox="0 0 272.75 259.96"><defs><style>.cls-1{fill:#d5476a;}.cls-2{fill:#4189a6;}.cls-3{fill:#1bb3cc;}.cls-4{fill:#f6b5ac;}.cls-5{fill:#ffddd3;}.cls-6{fill:#9f3607;}.cls-7{fill:#8b2b04;}.cls-8{fill:#fff;}.cls-9{fill:#3d3d3d;}.cls-10{fill:#ececec;}.cls-11{fill:#dbdfdf;}.cls-12{fill:#ffe293;}.cls-13{fill:#f8ca64;}.cls-14{fill:#ffe7e2;}.cls-15{fill:#fbb3d1;}.cls-16{fill:#d78783;}.cls-17{fill:#8b532d;}.cls-18{fill:#a96b3f;}.cls-19{fill:#444;}.cls-20{fill:#c36b69;}.cls-21{fill:#cc2e78;}.cls-22{fill:#b11966;}.cls-23{fill:#d5d5d5;}.cls-24{fill:#e9e9e9;}.cls-25{fill:#3181c3;}.cls-26{fill:#2672a4;}.cls-27{fill:#f8f6dd;}.cls-28{fill:#e7dba9;}</style></defs><g id="Capa_2" data-name="Capa 2"><g id="Capa_4" data-name="Capa 4"><path class="cls-1" d="M216.05,252.21s-7.79,2.53-6.55,4.77,10.43,3.6,12.83-3.05Z"/><path class="cls-1" d="M258.18,251.58s-2.57,6.4,6.82,5.84,2.77-7-.74-6.82a30.4,30.4,0,0,0-6.08,1"/><path class="cls-2" d="M253,181.8l-25.24-4.16s-.62,2.32-1.6,6.16a38.46,38.46,0,0,0,14.73,2.81,124.22,124.22,0,0,0,12.46-.55,25.31,25.31,0,0,1-.35-4.26"/><path class="cls-3" d="M226.19,183.8c-3.93,15.51-13.6,55.81-11,67.81,0,0,3.82,3.24,8.29,2.12,0,0,8.39-45,12.08-53.92a6.57,6.57,0,0,0,5-.44s14.26,51.56,16.61,52.24c0,0,6.16,0,8.39-1.68,0,0-10.14-48.39-12.18-63.87a124.22,124.22,0,0,1-12.46.55,38.46,38.46,0,0,1-14.73-2.81"/><path class="cls-4" d="M224.11,137.23s-13-1.28-18.9-8.64l2.67,13.17s11.87,3.46,16,2.23Z"/><path class="cls-3" d="M252.22,137s17.76,7.8,20.53,15.77c0,0-4.73,8.3-11.85,10.07L257.4,158s-1.68,20.94-3.28,23.57a37.09,37.09,0,0,1-29.78-6.12s2.77-15,7.13-24.17a19.32,19.32,0,0,1-8.3-1.59s-3.28-8.47,4.44-18.33c0,0,15.69,8,19.11,4.93s5.5.73,5.5.73"/><path class="cls-4" d="M252.16,135.75l.2-4.38-6.29,2.28-.74,2.2a8.73,8.73,0,0,0,6.83-.1"/><path class="cls-5" d="M245.33,135.85,245,137l1.89,5.52L252.1,137l.06-1.28a8.73,8.73,0,0,1-6.83.1"/><path class="cls-6" d="M245.87,99.36c4.12,2.1,6.88-2.18,6.88-2.18s-1.59,6,5.12,6.63c3.33.33,6.58-2.77,9-6a8.33,8.33,0,0,0-4.23-5.39c-3.73-1.85-5.16,1.27-5.16,1.27s-3.23-8.74-11.24-7.1a26.56,26.56,0,0,0-3.64,1c-1.17,3.77-1.75,9.2,3.26,11.76"/><path class="cls-7" d="M266.88,97.83c-2.43,3.21-5.68,6.31-9,6-6.71-.67-5.12-6.63-5.12-6.63s-2.76,4.28-6.88,2.18c-5-2.56-4.43-8-3.26-11.76-8.47,3.05-3.24,8.15-3.24,8.15s-7.55-3.18-9.65,3.53,6.55,8.18,6.55,8.18l26,11.07s5.07-3.56,6.63-7.09-2-7-2-7a13.47,13.47,0,0,0-.09-6.61"/><path class="cls-4" d="M245.37,109.43a5.44,5.44,0,0,0,4.87,4.14c4.11.39,4.61-1.21,4.61-1.21s1,5.32,4.7,3.78c-4.07-1.47-2.35-8.66-2.35-8.66s-3.31,2.54-6.57,1.86-2-3.73-2-3.73c-4.07,3-12.33,1.85-12.33,1.85-.28.9-.55,1.8-.81,2.68,3.11.81,7.14,1.24,9.91-.71"/><path class="cls-5" d="M259.55,116.14h0c-3.72,1.54-4.7-3.78-4.7-3.78s-.5,1.6-4.61,1.21a5.44,5.44,0,0,1-4.87-4.14c-2.77,1.95-6.8,1.52-9.91.71-3.07,10.3-4.63,18.83,6.39,22.74,12,4.23,16.06-10.24,16.06-10.24s6.17,2.31,6.84-2.39c.78-5.48-5.2-4.11-5.2-4.11"/><path class="cls-4" d="M244.2,115.18l-2,2.43s-1.93-1.18-3-.34.51,3.19.51,3.19.67-3.06,3-.88Z"/><path class="cls-8" d="M240,123a18.83,18.83,0,0,0,12-.67s.59,6.71-4.32,7.25S240,123,240,123"/><path class="cls-4" d="M260.14,118.53a1.92,1.92,0,0,1-.8,1.93,1.23,1.23,0,0,0,1.85-.25c.75-1.13-1.05-1.68-1.05-1.68"/><path class="cls-6" d="M253.22,111.19c.67-.71,3.61,1.73,2.93,2.38s-3.61-1.67-2.93-2.38"/><path class="cls-6" d="M241.85,110.14c-.17-1.13-3.64-.45-3.73.53s3.89.6,3.73-.53"/><path class="cls-9" d="M242.61,114.42c-.25.93-.92,1.55-1.49,1.39s-.83-1-.57-2,.92-1.55,1.49-1.39.83,1,.57,2"/><path class="cls-9" d="M254.31,117c-.25.92-.92,1.55-1.49,1.39s-.82-1-.57-2,.93-1.55,1.5-1.4.82,1,.56,2"/><path class="cls-10" d="M243.37,156.68A23.91,23.91,0,0,1,239,158c-2.69.59-2.91,2.23-1.65,3.82a3.81,3.81,0,0,0-.08,2.51,3.41,3.41,0,0,0,1.84,1.8,2.73,2.73,0,0,0-.11,2.53c.69,1.23,7.52-.66,7.52-.66s1.62-4.49-3.16-11.35"/><path class="cls-11" d="M244.46,158.76s-5.39.65-5.29,1.54,5.59-.06,5.59-.06Z"/><path class="cls-11" d="M245.86,161.91s-5.4.65-5.29,1.53,5.59-.06,5.59-.06Z"/><path class="cls-11" d="M246.42,164.53s-5.39.65-5.29,1.54,5.59-.06,5.59-.06Z"/><path class="cls-1" d="M243.4,155.66c-1.94,1.14,4,10,2.31,15.1L262,201.88s2.86.67,4.53-2.85c0,0-16.27-27-16.9-32.51s-4.19-12.08-6.25-10.86"/><path class="cls-5" d="M269.2,157.36a19.6,19.6,0,0,1-4.41,3.83s5.64,12.78-4,19.33a6.69,6.69,0,0,0-6.1-1.57c-3.69.9-5,2.69-4.53,3.69s2.57,1.12,2.57,1.12-1.84,2.13-.89,3.69,3.08.67,3.08.67a2.39,2.39,0,0,0,.33,2.52c1,1.06,6.29.07,7.37-5.78,0,0,14.28-5.07,6.56-27.5"/><path class="cls-12" d="M29.77,103.66c-7.22,1.23-9.15-2.8-9.15-2.8s-1.34,7.3-10.9,7.47c-4.12.07-6.71-3-8.33-6.42C5.44,91.05,20.06,95.6,20.06,95.6s5.86-4.89,13.05.6c1.64,3.08,2.07,6.53-3.34,7.46"/><path class="cls-13" d="M1.39,101.91h0c1.62,3.47,4.21,6.49,8.33,6.42,9.56-.17,10.9-7.47,10.9-7.47s1.93,4,9.15,2.8c5.41-.93,5-4.38,3.34-7.46A27.34,27.34,0,0,1,36,98.62C46.16,108.47,40,116.24,40,116.24s5.43,44.36,8.67,55.66S.82,191.81,3.28,162.72c3.21-37.9-6.82-47.43-1.89-60.81"/><path class="cls-4" d="M56.31,137.9s13-1.28,18.9-8.65l-2.66,13.17s-11.88,3.47-16,2.24Z"/><path class="cls-1" d="M57.39,252.89s-2.57,6.4,6.83,5.84,2.76-7-.75-6.82a30.4,30.4,0,0,0-6.08,1"/><path class="cls-1" d="M22.74,252.45s2.57,6.4-6.83,5.84-2.76-7,.75-6.82a30.58,30.58,0,0,1,6.08,1"/><path class="cls-2" d="M27.88,182.67l25.24-4.17s.63,2.33,1.6,6.17A38.61,38.61,0,0,1,40,187.48c-4.55,0-8.75-.2-12.45-.55a26.07,26.07,0,0,0,.34-4.26"/><path class="cls-3" d="M54.72,184.67c3.94,15.51,13.6,55.8,11,67.8,0,0-3.82,3.25-8.3,2.13,0,0-9-45.23-12.68-54.18a9.75,9.75,0,0,1-4.38-.19S26.09,251.8,23.74,252.47c0,0-6.15,0-8.39-1.67,0,0,10.14-48.39,12.19-63.87,3.7.35,7.9.57,12.45.55a38.61,38.61,0,0,0,14.73-2.81"/><path class="cls-3" d="M28.7,137.9s-17.77,7.8-20.53,15.77c0,0,4.73,8.3,11.84,10.06l3.51-4.86s1.68,20.95,3.27,23.58a37.07,37.07,0,0,0,29.78-6.13s-2.76-15-7.13-24.16a19.36,19.36,0,0,0,8.31-1.59s3.27-8.48-4.45-18.33c0,0-15.68,8-19.11,4.93s-5.49.73-5.49.73"/><path class="cls-1" d="M25.82,184.87a70,70,0,0,0,3.81-6.35c.41-1.19-.56-11.45-.43-11.9a4.69,4.69,0,0,1,.84-1.2l1.53,1.06,2-2.89-3.85-2.68L27,164.84,26.74,176l-9.63,14s.29,2.23,3.78,2.86Z"/><polygon class="cls-8" points="32.93 164.51 34.47 166.41 32.18 165.59 32.93 164.51"/><path class="cls-5" d="M11.2,157.79a35.57,35.57,0,0,0,4.15,3.76s-5.52,12.25,4.1,18.79a6.65,6.65,0,0,1,6.09-1.56c3.7.89,5,2.68,4.54,3.69s-2.58,1.11-2.58,1.11,1.85,2.13.9,3.7-3.08.67-3.08.67a2.4,2.4,0,0,1-.33,2.51c-1,1.07-6.3.07-7.37-5.78,0,0-14.14-4.46-6.42-26.89"/><path class="cls-4" d="M28.75,136.62l-.19-4.38,6.28,2.28.75,2.2a8.75,8.75,0,0,1-6.84-.1"/><path class="cls-5" d="M35.59,136.72l.38,1.1-1.89,5.53-5.27-5.45-.06-1.28a8.75,8.75,0,0,0,6.84.1"/><path class="cls-14" d="M37.74,111.32a16.56,16.56,0,0,1-14-6s-2.35,9-7.44,10.46c0,0-6.49-1.9-6.88,3.58s6.6,4.19,6.6,4.19,3.21,16.36,18.07,11.3c12.64-4.3,3.69-23.49,3.69-23.49"/><path class="cls-4" d="M30.41,119.71l2,2.43a3,3,0,0,1,2.47.41c1,.84,0,2.45,0,2.45s-.67-3.07-3-.88Z"/><path class="cls-13" d="M22.06,115.17c-.67-.72-3.62,1.72-2.93,2.37s3.6-1.66,2.93-2.37"/><path class="cls-13" d="M33.43,114.12c.17-1.13,3.63-.45,3.73.53s-3.9.6-3.73-.53"/><path class="cls-9" d="M32.67,118.4c.25.92.92,1.55,1.49,1.39s.83-1,.57-2-.93-1.55-1.5-1.4-.82,1-.56,2"/><path class="cls-9" d="M22.26,120.32c.26.93.93,1.56,1.5,1.4s.82-1,.56-2-.92-1.56-1.49-1.4-.82,1-.57,2"/><path class="cls-8" d="M34.14,127.71a5.48,5.48,0,0,1-6.73,1,4,4,0,0,0,3.84,2.53c2.85-.2,2.89-3.5,2.89-3.5"/><path class="cls-15" d="M27.56,125.64c0,.8-1.34,1.45-3,1.45s-3-.65-3-1.45,1.34-1.45,3-1.45,3,.65,3,1.45"/><path class="cls-15" d="M39.86,122.55c0,.51-.85.92-1.9.92s-1.9-.41-1.9-.92.85-.92,1.9-.92,1.9.41,1.9.92"/><path class="cls-2" d="M169,103.42a25.87,25.87,0,0,0-1.59-2.67l-28.12-1.84-1.37,8c11.91,4.58,24.09.14,31.08-3.46"/><path class="cls-3" d="M137.9,106.88l-3.06,17.76s33.51-9.39,35.53-13.09c1.22-2.23-.13-5.72-1.39-8.13-7,3.6-19.17,8-31.08,3.46"/><path class="cls-3" d="M144.83,64.4s-11,.4-14,15.87a14.33,14.33,0,0,0,9.52,1.51s-4.86,17.92-4.23,20c0,0,8.47,4.2,22.51,1.68,11-2,10.71-4.82,10.71-4.82l-8.72-29.2-7.47-4.79Z"/><path class="cls-4" d="M145.6,62.44a5.48,5.48,0,0,1-.77,2s.87,3.92,4.59,3.53A5.79,5.79,0,0,0,154.26,65a23.33,23.33,0,0,1-2-3.71,12.63,12.63,0,0,1-6.62,1.16"/><path class="cls-16" d="M151.56,58l-5.44.93a25.67,25.67,0,0,1-.52,3.56,12.63,12.63,0,0,0,6.62-1.16,6.62,6.62,0,0,1-.66-3.33"/><path class="cls-17" d="M161.86,25.29a21.05,21.05,0,0,1-2.74,1.58c-5.7,2.86-8.72-3.82-8.72-3.82s-5.37,9.19-12.92,7.24c-3.34-.86-3.72-3.79-3.12-6.79-7.91,6.53-3.84,16.63-3.84,16.63-.42,1.22,30,4.22,33.51-3.89a9.16,9.16,0,0,0-2.17-11"/><path class="cls-18" d="M150.23,12.36c-3.52,3.23,0,6.92,0,6.92s-2.8-1.59-9.94,1a19.41,19.41,0,0,0-5.93,3.25c-.6,3-.22,5.93,3.12,6.79,7.55,2,12.92-7.24,12.92-7.24s3,6.68,8.72,3.82a21.05,21.05,0,0,0,2.74-1.58,10.59,10.59,0,0,0-1.81-1.39,5.08,5.08,0,0,0,3.95-.73,4.34,4.34,0,0,0,1.41-2,8.55,8.55,0,0,0,.43-2.52c.35-11.28-12.08-9.48-15.61-6.25"/><path class="cls-16" d="M132,40.34s-5.49-1.65-5.41,4.31,7.18,3.69,7.18,3.69Z"/><path class="cls-16" d="M160.05,35.26s5.49-.5,5.2,4a4.65,4.65,0,0,1-4.68,4.5Z"/><path class="cls-8" d="M148,48a65.73,65.73,0,0,0-12.38,4.34c2.46,4.17,6.56,7.53,13.38,6.32,7.13-1.27,10.05-6.27,11.12-11.33A57.38,57.38,0,0,0,148,48"/><path class="cls-4" d="M151,33.42s4,5.43,9.49,4.88a28,28,0,0,0-.43-3c-6.13-.67-8.85-7.55-8.85-7.55-7,9.86-19.22,12.63-19.22,12.63a29.82,29.82,0,0,0,.44,3.08c4.81-1.07,14.26-3.86,18.57-10"/><path class="cls-5" d="M151,33.42c-4.31,6.14-13.76,8.93-18.57,10a28.44,28.44,0,0,0,3.17,8.89A65.73,65.73,0,0,1,148,48a57.38,57.38,0,0,1,12.12-.67,30.49,30.49,0,0,0,.39-9c-5.49.55-9.49-4.88-9.49-4.88"/><path class="cls-19" d="M141.25,43.94c.12,1.1-.32,2.06-1,2.13s-1.31-.76-1.43-1.86.31-2.06,1-2.14,1.31.76,1.44,1.87"/><path class="cls-19" d="M155.47,41.75c.12,1.11-.32,2.07-1,2.14s-1.31-.76-1.43-1.86.32-2.06,1-2.14,1.31.76,1.44,1.86"/><path class="cls-4" d="M145.74,46.88s-.5-1.8,1.18-2.18,2.26,1.6,2.26,1.6a2.36,2.36,0,0,0-3.44.58"/><path class="cls-17" d="M152.83,35.26c.54-1.12,3.82.05,3.36,1.09s-3.73-.29-3.36-1.09"/><path class="cls-17" d="M136.47,41c-.42-.62,3-3.06,3.57-2.26s-2.94,3.18-3.57,2.26"/><path class="cls-20" d="M130.56,42.75a2.09,2.09,0,0,0-1.17,2,1.47,1.47,0,0,0,1.55,1.35,4.19,4.19,0,0,1-.38-3.4"/><path class="cls-20" d="M162.06,38a1.42,1.42,0,0,1,1.26,1.26A1.89,1.89,0,0,1,162.25,41s.9-2.06-.19-2.94"/><path class="cls-5" d="M137.38,80.28l-4.23-.93c-4.88,9.69-.82,12.41,1.4,13.15a1,1,0,0,0,.68,0h0c.86-.15,1.05-.56,1.05-.56l-.37-.37Z"/><path class="cls-21" d="M187.86,37c11.38-12.57,24.72-19,29.82-14.41,3.27,3,2.33,9.76-1.76,17.57,8.93-7.09,16.61-16.63,21.11-22.77a36.13,36.13,0,0,0-8.61-9.82c-6.88-4.95-22-8.64-25.08-7.3s-3.86,7.21-3.86,7.21a157.35,157.35,0,0,0-21.62,23.76l-.14.18c.13,3.62.92,9.12,4.16,13.13a72.58,72.58,0,0,1,6-7.55"/><path class="cls-22" d="M237.06,17.44l0,0c-4.5,6.14-12.18,15.68-21.11,22.77A67.16,67.16,0,0,1,206.3,53.7c-11.38,12.57-24.72,19-29.82,14.41-4.08-3.7-1.61-13.38,5.4-23.55-3.24-4-4-9.51-4.16-13.13A293.73,293.73,0,0,0,153.5,69.66l27.77,24.89c37.59-34.84,53.45-62.22,53.45-62.22,2.6.5,7.13-2.35,7.13-3.44,0-2.28-1.93-6.9-4.79-11.45"/><path class="cls-2" d="M181.88,44.56c-7,10.17-9.48,19.85-5.4,23.55,5.1,4.61,18.44-1.84,29.82-14.41a67.16,67.16,0,0,0,9.62-13.53c-5.92,4.7-12.38,8.33-18.84,9.19-7.71,1-12.39-1.32-15.2-4.8"/><path class="cls-3" d="M217.68,22.6C212.59,18,199.24,24.44,187.86,37a72.58,72.58,0,0,0-6,7.55c2.81,3.48,7.49,5.83,15.2,4.8,6.46-.86,12.92-4.49,18.84-9.19,4.09-7.81,5-14.61,1.76-17.57"/><path class="cls-23" d="M157.2,81.49l-3.7-11.83a23.72,23.72,0,0,1,18.29,6.5,31.81,31.81,0,0,1,9.48,18.39l-12.72-3Z"/><path class="cls-24" d="M157.2,81.49,152,87.74l13.37,7.72L169,91a11.73,11.73,0,0,0-4.78-7.36c-4-2.6-7-2.18-7-2.18"/><path class="cls-23" d="M165.33,95.46c-1.22,2.12-5.21,2.11-8.9,0s-5.69-5.58-4.47-7.7,5.21-2.11,8.9,0,5.7,5.58,4.47,7.7"/><path class="cls-25" d="M129.26,110.88c13.94,1.12,23.57-6.38,30.21-16.7a32.33,32.33,0,0,0-.18-5s-16.4,17.37-44.07,2.35A18.12,18.12,0,0,0,108,89.26c-6.37,7.14-11.46,19,21.3,21.62"/><path class="cls-26" d="M129.26,110.88C96.5,108.25,101.59,96.4,108,89.26,94,88.2,86.46,107.38,94,112c8.73,5.37,35.35,11.5,51.8,5,11.39-4.49,13.49-16.12,13.71-22.85-6.64,10.32-16.27,17.82-30.21,16.7"/><path class="cls-5" d="M197.53,78.62s-3.11-3.36-1.46-5.32S200.14,75,200.14,75s-2.81-3-1.64-4,3.81,1.17,3.81,1.17-3-1.86-1.18-3.25,6.74,4.38,2.44,8.94-9.08,3.93-9.08,3.93Z"/><path class="cls-5" d="M134.89,86.91l.74,4.87a.37.37,0,0,0,.69.15C139,87.72,151,69.08,154.63,66.15c0,0,4,1.23,4.59-.83s-2.41-2.86-2.41-2.86,3.08,1.34,4.08,0-2.35-2.4-2.35-2.4,3.47,1.12,4.14-1-5.09-6.88-11.91,2.35-13.86,16.78-15.88,25.45"/><path class="cls-4" d="M136,82.75a9,9,0,0,0-1.14,5.31s.75-4.94,1.14-5.31"/><path class="cls-27" d="M85.74,182.11c27.75,17,40.71-6.05,57.41-5.73s19.76,15,40,12.05c13.55-2,28.83-26.94,30.94-49.15-2.6-11.38-8.74-21.06-18.44-25.64-23.84-11.25-42.68,8.53-58.3,7.58-15.61,1-29.29-17.81-53.06-6.43-9.3,4.46-15.28,13.61-18,24.44.64,15.38,4.77,33.87,19.48,42.88"/><path class="cls-28" d="M183.11,188.43c-20.2,2.95-23.26-11.72-40-12.05s-29.66,22.75-57.41,5.73c-14.71-9-18.84-27.5-19.48-42.88-4.2,16.83-.49,37.71,11,51.3C96.05,212.85,91.71,260.65,111.3,260c9.89-.35,11.78-13.58,13.86-26.35a39.61,39.61,0,0,1,3.91-12c2.49-4.79,6.42-9.84,11.94-9.86,6.14,0,9.36,5.11,11,9.38,4.59,14.38,4.17,37.38,17.37,37.78,19.6.59,15-47.18,33.69-69.61,11.09-13.29,14.79-33.47,11-50.05-2.11,22.21-17.39,47.18-30.94,49.15"/><path class="cls-8" d="M106.81,131.54c-1.22,2.89-5.58,3.82-9.74,2.07s-6.55-5.52-5.33-8.41,5.58-3.83,9.74-2.07,6.54,5.51,5.33,8.41"/><path class="cls-8" d="M119.66,132.3c-1.6-8.38,18.24-2.77,29.86-6.92,6.26-2.24,24.17-8.75,26.56-1.57s-11.05,12.94-28.5,13.84-27.11-1.06-27.92-5.35"/></g></g></svg>