<svg xmlns="http://www.w3.org/2000/svg" viewBox="0 0 129.51 11.91"><defs><style>.cls-1{fill:#fcee21;}</style></defs><g id="Capa_2" data-name="Capa 2"><g id="Capa_1-2" data-name="Capa 1"><path class="cls-1" d="M2.6,8.57c5.67-5.1,14.8-4.72,21.84-3.66,9.23,1.38,17.82,5.34,27.06,6.61a33.71,33.71,0,0,0,15.36-1.15c4.72-1.57,9.08-4,13.74-5.74,3.88-1.42,7.66-2.14,11.73-1.24a72.56,72.56,0,0,1,10.59,3.69,46.05,46.05,0,0,0,12.64,3.5,20.63,20.63,0,0,0,13.26-3.4c1.6-1.06.1-3.66-1.52-2.59a18,18,0,0,1-11.58,3,40.63,40.63,0,0,1-11.21-3.1A87.63,87.63,0,0,0,93.72.64,21.57,21.57,0,0,0,82.2.94c-4.77,1.41-9.14,3.85-13.75,5.67A31.73,31.73,0,0,1,53.06,8.72c-9.42-1-18.14-5.2-27.48-6.65C17.28.78,7.14.46.48,6.45-1,7.74,1.17,9.86,2.6,8.57Z"/></g></g></svg>