<svg xmlns="http://www.w3.org/2000/svg" viewBox="0 0 120.85 12.12"><defs><style>.cls-1{fill:#fcee21;}</style></defs><g id="Capa_2" data-name="Capa 2"><g id="Capa_1-2" data-name="Capa 1"><path class="cls-1" d="M2.3,6c7.55-3.25,16-1.85,23.69.24,8.16,2.22,16.17,5.4,24.71,5.82a31.83,31.83,0,0,0,12.09-1.74C66.47,9.06,70,7.28,73.54,5.76A30.36,30.36,0,0,1,84.4,3,44.38,44.38,0,0,1,95.46,4.38c8,1.78,16.28,4.34,24.35,1.71,1.83-.6,1-3.5-.8-2.89-7.2,2.35-14.64.15-21.75-1.49A58.25,58.25,0,0,0,86.21,0,29.25,29.25,0,0,0,75.14,1.92c-7.53,2.76-14.31,7.17-22.59,7.2-8.67,0-16.88-3.28-25.12-5.58C18.7,1.11,9.37-.27.79,3.43-1,4.2.54,6.78,2.3,6Z"/></g></g></svg>