<svg xmlns="http://www.w3.org/2000/svg" xmlns:xlink="http://www.w3.org/1999/xlink" viewBox="0 0 154.16 46.07"><defs><style>.cls-1{fill:url(#linear-gradient);}.cls-2{fill:url(#linear-gradient-2);}.cls-3{fill:url(#linear-gradient-3);}.cls-4{fill:url(#linear-gradient-4);}.cls-5{fill:#fff;}.cls-6{font-size:17px;fill:#1bb2cb;font-family:OpenSans, Open Sans;letter-spacing:-0.01em;}.cls-7{letter-spacing:0.09em;}.cls-8{fill:#cb2e78;font-size:18px;font-family:KBbubblegum;letter-spacing:0.04em;}</style><linearGradient id="linear-gradient" x1="17.9" y1="3.45" x2="30.02" y2="3.45" gradientUnits="userSpaceOnUse"><stop offset="0" stop-color="#6be6fa"/><stop offset="0.14" stop-color="#5bcefa"/><stop offset="0.39" stop-color="#44abfb"/><stop offset="0.62" stop-color="#3392fc"/><stop offset="0.83" stop-color="#2982fc"/><stop offset="1" stop-color="#257dfc"/></linearGradient><linearGradient id="linear-gradient-2" y1="23.03" x2="38" y2="23.03" gradientUnits="userSpaceOnUse"><stop offset="0" stop-color="#a3ffff"/><stop offset="0.22" stop-color="#9efcff"/><stop offset="0.47" stop-color="#91f4fe"/><stop offset="0.74" stop-color="#7ae6fd"/><stop offset="1" stop-color="#5cd4fc"/></linearGradient><linearGradient id="linear-gradient-3" x1="8.64" y1="35.6" x2="29.36" y2="35.6" gradientUnits="userSpaceOnUse"><stop offset="0" stop-color="#f980b6"/><stop offset="0.67" stop-color="#ef438c"/><stop offset="1" stop-color="#eb2a7b"/></linearGradient><linearGradient id="linear-gradient-4" x1="6.61" y1="3.24" x2="20.73" y2="21.84" gradientUnits="userSpaceOnUse"><stop offset="0" stop-color="#fff"/><stop offset="0.16" stop-color="#fff" stop-opacity="0.86"/><stop offset="0.52" stop-color="#fff" stop-opacity="0.51"/><stop offset="1" stop-color="#fff" stop-opacity="0"/></linearGradient></defs><g id="Capa_2" data-name="Capa 2"><g id="Capa_1-2" data-name="Capa 1"><path class="cls-1" d="M17.9,3.87a14.29,14.29,0,0,0,8,2.72c3.81,0,5.18-3.54,3.36-5.42a3,3,0,0,0-3.07-.7c-2.17.71-3.43,2.05-4.76,2.87A4.56,4.56,0,0,1,19,4a4.56,4.56,0,0,1-1.1-.15Z"/><path class="cls-2" d="M35.88,3.21A8.51,8.51,0,0,0,28.18.05c6,.48,5.07,7.63-.77,7.63-6.14,0-10.8-4.34-10.8-4.34-1.7-1-3.28-2.95-6.8-3.29A8.5,8.5,0,0,0,2.12,3.21,9.18,9.18,0,0,0,.53,6.34h0v0c0,.16-.09.33-.13.5a1.6,1.6,0,0,0,0,.21q-.09.36-.15.75h0c-.61,3.74.15,9.21,4,16.84C6,28.26,6.16,41.2,7.9,44.08c.16.27.32.53.47.76a2.56,2.56,0,0,0,2.06,1.23c1.29,0,3.57-11.76,3.57-11.76a5.09,5.09,0,0,1,5-4h0a5.1,5.1,0,0,1,5,4s2.27,11.8,3.57,11.76a2.57,2.57,0,0,0,2.06-1.23c.15-.23.31-.49.47-.76.63-1,1.06-3.43,1.43-6.21h0c0-.16,0-.33.07-.51h0c.15-1.16.29-2.37.44-3.57s.27-2.27.43-3.34a21.86,21.86,0,0,1,1.35-5.79C39.74,12.9,38.35,6.27,35.88,3.21Z"/><path class="cls-3" d="M19,25.12h0A10.36,10.36,0,0,0,8.64,35.48V45.2a2.52,2.52,0,0,0,1.79.87c1.29,0,3.57-11.76,3.57-11.76a5.09,5.09,0,0,1,5-4h0a5.1,5.1,0,0,1,5,4s2.27,11.8,3.57,11.76a2.52,2.52,0,0,0,1.79-.87V35.48A10.36,10.36,0,0,0,19,25.12Z"/><path class="cls-4" d="M9.7,41.42c-.42-1.82-.79-4.89-1.06-7.12-.53-4.42-1-8.6-2.14-10.81C2.61,15.75,2.31,10.93,2.76,8.24c0-.2.07-.4.11-.59l0-.15c0-.13.06-.24.09-.33l0-.09A6.48,6.48,0,0,1,4.14,4.85,5.88,5.88,0,0,1,8.84,2.6a5.79,5.79,0,0,1,.72,0,7.68,7.68,0,0,1,4.25,1.91c.39.3.8.6,1.23.88,1.1,1,6,4.85,12.37,4.85a7.21,7.21,0,0,0,7.05-4.49c1.1,2.18,2.22,7.4-3,17.7a22.86,22.86,0,0,0-1.61,6.6c-.16,1.11-.3,2.28-.44,3.38l-.09.74c-.08.75-.17,1.49-.27,2.21l-.45.68.28.64c-.24,1.76-.45,2.91-.62,3.66-.57-2-1.22-4.82-1.75-7.59a7.73,7.73,0,0,0-15.09-.07C10.92,36.55,10.26,39.38,9.7,41.42Z"/><path class="cls-5" d="M31.6,37.36h0c0,.17-.05.35-.07.51C31.55,37.71,31.57,37.54,31.6,37.36Z"/><path class="cls-5" d="M.52,6.36c0,.16-.09.33-.13.5C.43,6.69.48,6.52.52,6.36Z"/><path class="cls-5" d="M.52,6.36h0v0Z"/><path class="cls-5" d="M.34,7.07q-.09.36-.15.75Q.25,7.43.34,7.07Z"/><path class="cls-5" d="M.39,6.86a1.6,1.6,0,0,0,0,.21A1.6,1.6,0,0,1,.39,6.86Z"/><text class="cls-6" transform="translate(46.16 30.31)">DENTA<tspan class="cls-7" x="53.89" y="0">L</tspan><tspan class="cls-8" x="64.19" y="0">KIDS</tspan></text></g></g></svg>